# 3ds Max Wavefront OBJ Exporter v0.97b - (c)2007 guruware
# File Created: 11.12.2014 15:52:47

mtllib defeat.mtl

#
# object Pyramid001
#

v  -13.5966 47.4338 12.6130
v  -11.5024 49.5777 13.1877
v  6.8907 51.8834 14.2487
v  12.2848 50.0082 11.9569
v  -0.3279 60.1503 -0.6557
v  11.2836 56.8010 -8.9566
v  10.2997 55.8676 -11.2833
v  -12.6588 51.0399 -12.9867
v  -13.4397 51.7030 -11.5030
v  75.0266 0.0000 74.6987
v  36.0513 60.7190 38.5037
v  -39.9664 56.7421 40.7302
v  -75.6823 0.0000 74.6987
v  75.0266 0.0000 -76.0102
v  35.2610 62.0091 -36.7069
v  -75.6823 0.0000 -76.0102
v  -36.6310 61.7826 -36.9588
v  -14.0258 45.6754 13.0422
v  -22.2333 58.2263 27.4478
v  1.1900 48.2813 16.6708
v  18.3117 51.8045 21.6739
v  22.9313 54.5926 18.5864
v  16.8296 47.3703 4.1577
v  15.0471 39.3687 14.7192
v  21.2906 56.2042 -22.2742
v  22.4535 60.5546 -23.4371
v  16.8379 46.0919 -21.9214
v  -25.3434 66.0889 -25.6713
v  -30.5038 56.3763 20.9166
v  -16.7276 49.8460 -5.2566
v  -18.7714 40.4481 -19.0993
v  11.1324 53.8375 -12.1160
v  -1.7513 51.6316 -16.9039
v  -13.4251 48.1250 -13.7530
v  -31.5373 60.4425 36.2677
v  25.8750 60.5441 25.5471
v  -9.6121 38.7608 -19.8252
# 37 vertices

vn -0.0717 0.8934 0.4434
vn 0.3965 0.8976 0.1924
vn 0.0000 0.4798 -0.8774
vn -0.1443 0.8594 -0.4906
vn -0.5915 0.8011 0.0912
vn -0.0006 0.5128 0.8585
vn 0.8417 0.5400 0.0001
vn 0.0004 0.5348 -0.8450
vn -0.8458 0.5335 -0.0006
vn -0.0192 0.8484 -0.5290
vn -0.8825 0.4682 -0.0439
vn -0.7513 0.3503 0.5594
vn 0.8569 0.5134 0.0469
vn 0.3624 0.9027 0.2319
vn -0.1419 0.7991 -0.5843
vn -0.7583 0.3448 -0.5532
vn -0.0106 0.9799 0.1994
vn -0.2457 0.9690 0.0243
vn -0.0133 0.9664 -0.2569
vn 0.4645 0.3336 0.8203
vn 0.7910 0.5460 0.2763
vn -0.0320 0.7569 -0.6527
vn 0.1264 0.2766 0.9526
vn -0.1828 0.9807 0.0699
vn 0.7102 0.4962 -0.4994
vn -0.2923 0.6604 -0.6917
vn 0.4925 0.8594 -0.1373
vn -0.5424 0.3218 0.7761
vn -0.4759 0.8567 0.1990
vn -0.1272 0.6842 0.7181
vn -0.6386 0.6971 -0.3260
vn 0.0265 0.7809 0.6241
vn -0.2009 0.4741 -0.8573
vn -0.6998 0.5966 -0.3929
vn -0.8725 0.4856 0.0542
vn 0.3816 0.7202 -0.5794
vn -0.1603 0.3106 -0.9369
# 37 vertex normals

vt 0.4120 0.8239 0.0000
vt 0.4259 0.8163 0.0000
vt 0.5479 0.8022 0.0000
vt 0.5837 0.8326 0.0000
vt 0.5000 1.0000 0.0000
vt 0.4163 0.8326 0.0000
vt 0.5551 0.8459 0.0000
vt 0.5705 0.8590 0.0000
vt 0.4295 0.8590 0.0000
vt 0.5818 0.8364 0.0000
vt 0.4182 0.8364 0.0000
vt 0.4280 0.8260 0.0000
vt 0.5880 0.8239 0.0000
vt 1.0000 0.0000 0.0000
vt 0.7598 0.4803 0.0000
vt 0.2059 0.4117 0.0000
vt 0.0000 0.0000 0.0000
vt 0.2402 0.4803 0.0000
vt 0.7174 0.5652 0.0000
vt 0.2826 0.5652 0.0000
vt 0.7409 0.5182 0.0000
vt 0.7941 0.4117 0.0000
vt 0.2591 0.5182 0.0000
vt 0.4091 0.8182 0.0000
vt 0.2927 0.5853 0.0000
vt 0.5101 0.7701 0.0000
vt 0.3454 0.6907 0.0000
vt 0.3723 0.6913 0.0000
vt 0.4681 0.7723 0.0000
vt 0.3980 0.7960 0.0000
vt 0.3566 0.7131 0.0000
vt 0.3488 0.6977 0.0000
vt 0.3861 0.7178 0.0000
vt 0.3340 0.6680 0.0000
vt 0.6431 0.5995 0.0000
vt 0.4695 0.7824 0.0000
vt 0.3776 0.7552 0.0000
vt 0.6434 0.7131 0.0000
vt 0.5760 0.8479 0.0000
vt 0.5094 0.7844 0.0000
vt 0.5869 0.8262 0.0000
vt 0.4240 0.8479 0.0000
vt 0.4131 0.8262 0.0000
vt 0.2363 0.4727 0.0000
vt 0.6739 0.6523 0.0000
vt 0.6512 0.6977 0.0000
vt 0.3261 0.6523 0.0000
vt 0.7637 0.4727 0.0000
vt 0.7073 0.5853 0.0000
vt 0.6020 0.7960 0.0000
vt 0.6546 0.6907 0.0000
vt 0.6660 0.6680 0.0000
vt 0.6224 0.7552 0.0000
vt 0.5616 0.7456 0.0000
vt 0.5909 0.8182 0.0000
# 55 texture coords

g Pyramid001
usemtl 01___Default
s off
f 1/1/1 2/2/1 3/3/1 4/4/1 
f 5/5/1 1/1/1 4/4/1 
f 4/6/2 6/7/2 7/8/2 5/5/2 
f 5/5/3 7/9/4 8/10/4 
f 8/11/5 9/12/5 1/13/5 5/5/5 
f 10/14/6 11/15/6 12/16/6 13/17/6 
f 11/18/7 10/17/7 14/14/7 15/19/7 
f 15/20/8 14/17/8 16/14/8 17/21/8 
f 12/22/9 17/23/9 16/17/9 13/14/9 
f 2/2/10 18/24/10 19/25/10 20/26/10 
f 21/27/11 22/28/11 23/29/11 24/30/11 
f 25/31/12 26/32/12 27/33/12 
f 28/34/13 29/35/13 30/36/13 31/37/13 
f 23/29/14 25/38/14 32/39/14 6/7/14 
f 33/40/15 34/41/15 8/10/15 32/42/15 
f 7/9/15 32/42/15 8/10/15 
f 8/11/16 34/43/16 9/12/16 
f 35/44/17 12/16/17 11/15/17 36/45/17 
f 15/19/18 26/46/18 22/28/18 11/18/18 
f 36/47/18 11/18/18 22/28/18 
f 35/48/19 19/49/19 29/35/19 
f 3/3/20 24/50/20 4/4/20 
f 4/6/21 24/30/21 23/29/21 6/7/21 
f 19/25/22 35/44/22 36/45/22 21/51/22 
f 19/25/22 21/51/22 20/26/22 
f 28/52/23 31/53/23 37/54/23 
f 17/23/24 12/22/24 35/48/24 29/35/24 
f 28/34/24 17/23/24 29/35/24 
f 32/39/25 7/8/25 6/7/25 
f 32/42/26 25/31/26 27/33/26 33/40/26 
f 19/49/27 18/55/27 30/36/27 29/35/27 
f 1/1/28 18/24/28 2/2/28 
f 30/36/29 18/55/29 1/13/29 9/12/29 
f 20/26/30 3/3/30 2/2/30 
f 21/27/31 36/47/31 22/28/31 
f 26/32/32 15/20/32 17/21/32 28/52/32 
f 26/32/32 28/52/32 37/54/32 27/33/32 
f 37/54/33 31/53/33 34/41/33 33/40/33 
f 34/43/34 31/37/34 30/36/34 9/12/34 
f 26/46/35 25/38/35 23/29/35 22/28/35 
f 24/50/36 3/3/36 20/26/36 21/51/36 
f 27/33/37 37/54/37 33/40/37 
# 26 polygons - 16 triangles

